<?xml version="1.0" encoding="utf-8" standalone="no"?>
<!DOCTYPE svg PUBLIC "-//W3C//DTD SVG 1.1//EN"
  "http://www.w3.org/Graphics/SVG/1.1/DTD/svg11.dtd">
<svg xmlns:xlink="http://www.w3.org/1999/xlink" width="958.540313pt" height="654.636562pt" viewBox="0 0 958.540313 654.636562" xmlns="http://www.w3.org/2000/svg" version="1.1">
 <metadata>
  <rdf:RDF xmlns:dc="http://purl.org/dc/elements/1.1/" xmlns:cc="http://creativecommons.org/ns#" xmlns:rdf="http://www.w3.org/1999/02/22-rdf-syntax-ns#">
   <cc:Work>
    <dc:type rdf:resource="http://purl.org/dc/dcmitype/StillImage"/>
    <dc:date>2026-07-24T16:43:16.600154</dc:date>
    <dc:format>image/svg+xml</dc:format>
    <dc:creator>
     <cc:Agent>
      <dc:title>Matplotlib v3.11.1, https://matplotlib.org/</dc:title>
     </cc:Agent>
    </dc:creator>
   </cc:Work>
  </rdf:RDF>
 </metadata>
 <defs>
  <style type="text/css">*{stroke-linejoin: round; stroke-linecap: butt}</style>
 </defs>
 <g id="figure_1">
  <g id="patch_1">
   <path d="M 0 654.636562 
L 958.540313 654.636562 
L 958.540313 0 
L 0 0 
z
" style="fill: #ffffff"/>
  </g>
  <g id="axes_1">
   <g id="patch_2">
    <path d="M 171.354062 616.435781 
L 941.796563 616.435781 
L 941.796563 22.318125 
L 171.354062 22.318125 
z
" style="fill: #ffffff"/>
   </g>
   <g id="patch_3">
    <path d="M 171.354062 561.988509 
L 171.354062 561.988509 
L 171.354062 548.267547 
L 171.354062 548.267547 
z
" clip-path="url(#pd7b45c4f21)" style="fill: #4c78a8"/>
   </g>
   <g id="patch_4">
    <path d="M 171.354062 499.6205 
L 171.354062 499.6205 
L 171.354062 485.899538 
L 171.354062 485.899538 
z
" clip-path="url(#pd7b45c4f21)" style="fill: #4c78a8"/>
   </g>
   <g id="patch_5">
    <path d="M 171.354062 437.252491 
L 171.354062 437.252491 
L 171.354062 423.531529 
L 171.354062 423.531529 
z
" clip-path="url(#pd7b45c4f21)" style="fill: #4c78a8"/>
   </g>
   <g id="patch_6">
    <path d="M 171.354062 374.884481 
L 171.354062 374.884481 
L 171.354062 361.163519 
L 171.354062 361.163519 
z
" clip-path="url(#pd7b45c4f21)" style="fill: #4c78a8"/>
   </g>
   <g id="patch_7">
    <path d="M 171.354062 312.516472 
L 171.354062 312.516472 
L 171.354062 298.79551 
L 171.354062 298.79551 
z
" clip-path="url(#pd7b45c4f21)" style="fill: #4c78a8"/>
   </g>
   <g id="patch_8">
    <path d="M 171.354062 250.148463 
L 171.354062 250.148463 
L 171.354062 236.427501 
L 171.354062 236.427501 
z
" clip-path="url(#pd7b45c4f21)" style="fill: #4c78a8"/>
   </g>
   <g id="patch_9">
    <path d="M 171.354062 187.780454 
L 171.354062 187.780454 
L 171.354062 174.059492 
L 171.354062 174.059492 
z
" clip-path="url(#pd7b45c4f21)" style="fill: #4c78a8"/>
   </g>
   <g id="patch_10">
    <path d="M 171.354062 125.412444 
L 171.354062 125.412444 
L 171.354062 111.691482 
L 171.354062 111.691482 
z
" clip-path="url(#pd7b45c4f21)" style="fill: #4c78a8"/>
   </g>
   <g id="patch_11">
    <path d="M 171.354062 63.044435 
L 171.354062 63.044435 
L 171.354062 49.323473 
L 171.354062 49.323473 
z
" clip-path="url(#pd7b45c4f21)" style="fill: #4c78a8"/>
   </g>
   <g id="patch_12">
    <path d="M 171.354062 575.709471 
L 171.354062 575.709471 
L 171.354062 561.988509 
L 171.354062 561.988509 
z
" clip-path="url(#pd7b45c4f21)" style="fill: #59a14f"/>
   </g>
   <g id="patch_13">
    <path d="M 171.354062 513.341462 
L 171.354062 513.341462 
L 171.354062 499.6205 
L 171.354062 499.6205 
z
" clip-path="url(#pd7b45c4f21)" style="fill: #59a14f"/>
   </g>
   <g id="patch_14">
    <path d="M 171.354062 450.973453 
L 171.354062 450.973453 
L 171.354062 437.252491 
L 171.354062 437.252491 
z
" clip-path="url(#pd7b45c4f21)" style="fill: #59a14f"/>
   </g>
   <g id="patch_15">
    <path d="M 171.354062 388.605443 
L 171.354062 388.605443 
L 171.354062 374.884481 
L 171.354062 374.884481 
z
" clip-path="url(#pd7b45c4f21)" style="fill: #59a14f"/>
   </g>
   <g id="patch_16">
    <path d="M 171.354062 326.237434 
L 171.354062 326.237434 
L 171.354062 312.516472 
L 171.354062 312.516472 
z
" clip-path="url(#pd7b45c4f21)" style="fill: #59a14f"/>
   </g>
   <g id="patch_17">
    <path d="M 171.354062 263.869425 
L 171.354062 263.869425 
L 171.354062 250.148463 
L 171.354062 250.148463 
z
" clip-path="url(#pd7b45c4f21)" style="fill: #59a14f"/>
   </g>
   <g id="patch_18">
    <path d="M 171.354062 201.501416 
L 171.354062 201.501416 
L 171.354062 187.780454 
L 171.354062 187.780454 
z
" clip-path="url(#pd7b45c4f21)" style="fill: #59a14f"/>
   </g>
   <g id="patch_19">
    <path d="M 171.354062 139.133406 
L 171.354062 139.133406 
L 171.354062 125.412444 
L 171.354062 125.412444 
z
" clip-path="url(#pd7b45c4f21)" style="fill: #59a14f"/>
   </g>
   <g id="patch_20">
    <path d="M 171.354062 76.765397 
L 171.354062 76.765397 
L 171.354062 63.044435 
L 171.354062 63.044435 
z
" clip-path="url(#pd7b45c4f21)" style="fill: #59a14f"/>
   </g>
   <g id="patch_21">
    <path d="M 171.354062 589.430433 
L 171.354062 589.430433 
L 171.354062 575.709471 
L 171.354062 575.709471 
z
" clip-path="url(#pd7b45c4f21)" style="fill: #f28e2b"/>
   </g>
   <g id="patch_22">
    <path d="M 171.354062 527.062424 
L 171.354062 527.062424 
L 171.354062 513.341462 
L 171.354062 513.341462 
z
" clip-path="url(#pd7b45c4f21)" style="fill: #f28e2b"/>
   </g>
   <g id="patch_23">
    <path d="M 171.354062 464.694415 
L 171.354062 464.694415 
L 171.354062 450.973453 
L 171.354062 450.973453 
z
" clip-path="url(#pd7b45c4f21)" style="fill: #f28e2b"/>
   </g>
   <g id="patch_24">
    <path d="M 171.354062 402.326405 
L 171.354062 402.326405 
L 171.354062 388.605443 
L 171.354062 388.605443 
z
" clip-path="url(#pd7b45c4f21)" style="fill: #f28e2b"/>
   </g>
   <g id="patch_25">
    <path d="M 171.354062 339.958396 
L 171.354062 339.958396 
L 171.354062 326.237434 
L 171.354062 326.237434 
z
" clip-path="url(#pd7b45c4f21)" style="fill: #f28e2b"/>
   </g>
   <g id="patch_26">
    <path d="M 171.354062 277.590387 
L 171.354062 277.590387 
L 171.354062 263.869425 
L 171.354062 263.869425 
z
" clip-path="url(#pd7b45c4f21)" style="fill: #f28e2b"/>
   </g>
   <g id="patch_27">
    <path d="M 171.354062 215.222378 
L 171.354062 215.222378 
L 171.354062 201.501416 
L 171.354062 201.501416 
z
" clip-path="url(#pd7b45c4f21)" style="fill: #f28e2b"/>
   </g>
   <g id="patch_28">
    <path d="M 171.354062 152.854368 
L 171.354062 152.854368 
L 171.354062 139.133406 
L 171.354062 139.133406 
z
" clip-path="url(#pd7b45c4f21)" style="fill: #f28e2b"/>
   </g>
   <g id="patch_29">
    <path d="M 171.354062 90.486359 
L 171.354062 90.486359 
L 171.354062 76.765397 
L 171.354062 76.765397 
z
" clip-path="url(#pd7b45c4f21)" style="fill: #f28e2b"/>
   </g>
   <g id="matplotlib.axis_1">
    <g id="xtick_1">
     <g id="line2d_1">
      <path d="M 171.354062 616.435781 
L 171.354062 22.318125 
" clip-path="url(#pd7b45c4f21)" style="fill: none; stroke-dasharray: 2.96,1.28; stroke-dashoffset: 0; stroke: #b0b0b0; stroke-opacity: 0.4; stroke-width: 0.8"/>
     </g>
     <g id="line2d_2">
      <defs>
       <path id="m3bb70e554a" d="M 0 0 
L 0 3.5 
" style="stroke: #000000; stroke-width: 0.8"/>
      </defs>
      <g>
       <use xlink:href="#m3bb70e554a" x="171.354062" y="616.435781" style="stroke: #000000; stroke-width: 0.8"/>
      </g>
     </g>
     <g id="text_1">
      <!-- 0 -->
      <g transform="translate(168.172812 631.033437) scale(0.1 -0.1)">
       <defs>
        <path id="DejaVuSans-13" d="M 2034 4250 
Q 1547 4250 1301 3770 
Q 1056 3291 1056 2328 
Q 1056 1369 1301 889 
Q 1547 409 2034 409 
Q 2525 409 2770 889 
Q 3016 1369 3016 2328 
Q 3016 3291 2770 3770 
Q 2525 4250 2034 4250 
z
M 2034 4750 
Q 2819 4750 3233 4129 
Q 3647 3509 3647 2328 
Q 3647 1150 3233 529 
Q 2819 -91 2034 -91 
Q 1250 -91 836 529 
Q 422 1150 422 2328 
Q 422 3509 836 4129 
Q 1250 4750 2034 4750 
z
" transform="scale(0.015625)"/>
       </defs>
       <use xlink:href="#DejaVuSans-13"/>
      </g>
     </g>
    </g>
    <g id="xtick_2">
     <g id="line2d_3">
      <path d="M 325.442563 616.435781 
L 325.442563 22.318125 
" clip-path="url(#pd7b45c4f21)" style="fill: none; stroke-dasharray: 2.96,1.28; stroke-dashoffset: 0; stroke: #b0b0b0; stroke-opacity: 0.4; stroke-width: 0.8"/>
     </g>
     <g id="line2d_4">
      <g>
       <use xlink:href="#m3bb70e554a" x="325.442563" y="616.435781" style="stroke: #000000; stroke-width: 0.8"/>
      </g>
     </g>
     <g id="text_2">
      <!-- 20 -->
      <g transform="translate(319.080062 631.033437) scale(0.1 -0.1)">
       <defs>
        <path id="DejaVuSans-15" d="M 1228 531 
L 3431 531 
L 3431 0 
L 469 0 
L 469 531 
Q 828 903 1448 1529 
Q 2069 2156 2228 2338 
Q 2531 2678 2651 2914 
Q 2772 3150 2772 3378 
Q 2772 3750 2511 3984 
Q 2250 4219 1831 4219 
Q 1534 4219 1204 4116 
Q 875 4013 500 3803 
L 500 4441 
Q 881 4594 1212 4672 
Q 1544 4750 1819 4750 
Q 2544 4750 2975 4387 
Q 3406 4025 3406 3419 
Q 3406 3131 3298 2873 
Q 3191 2616 2906 2266 
Q 2828 2175 2409 1742 
Q 1991 1309 1228 531 
z
" transform="scale(0.015625)"/>
       </defs>
       <use xlink:href="#DejaVuSans-15"/>
       <use xlink:href="#DejaVuSans-13" transform="translate(63.625 0)"/>
      </g>
     </g>
    </g>
    <g id="xtick_3">
     <g id="line2d_5">
      <path d="M 479.531063 616.435781 
L 479.531063 22.318125 
" clip-path="url(#pd7b45c4f21)" style="fill: none; stroke-dasharray: 2.96,1.28; stroke-dashoffset: 0; stroke: #b0b0b0; stroke-opacity: 0.4; stroke-width: 0.8"/>
     </g>
     <g id="line2d_6">
      <g>
       <use xlink:href="#m3bb70e554a" x="479.531063" y="616.435781" style="stroke: #000000; stroke-width: 0.8"/>
      </g>
     </g>
     <g id="text_3">
      <!-- 40 -->
      <g transform="translate(473.168563 631.033437) scale(0.1 -0.1)">
       <defs>
        <path id="DejaVuSans-17" d="M 2419 4116 
L 825 1625 
L 2419 1625 
L 2419 4116 
z
M 2253 4666 
L 3047 4666 
L 3047 1625 
L 3713 1625 
L 3713 1100 
L 3047 1100 
L 3047 0 
L 2419 0 
L 2419 1100 
L 313 1100 
L 313 1709 
L 2253 4666 
z
" transform="scale(0.015625)"/>
       </defs>
       <use xlink:href="#DejaVuSans-17"/>
       <use xlink:href="#DejaVuSans-13" transform="translate(63.625 0)"/>
      </g>
     </g>
    </g>
    <g id="xtick_4">
     <g id="line2d_7">
      <path d="M 633.619563 616.435781 
L 633.619563 22.318125 
" clip-path="url(#pd7b45c4f21)" style="fill: none; stroke-dasharray: 2.96,1.28; stroke-dashoffset: 0; stroke: #b0b0b0; stroke-opacity: 0.4; stroke-width: 0.8"/>
     </g>
     <g id="line2d_8">
      <g>
       <use xlink:href="#m3bb70e554a" x="633.619563" y="616.435781" style="stroke: #000000; stroke-width: 0.8"/>
      </g>
     </g>
     <g id="text_4">
      <!-- 60 -->
      <g transform="translate(627.257063 631.033437) scale(0.1 -0.1)">
       <defs>
        <path id="DejaVuSans-19" d="M 2113 2584 
Q 1688 2584 1439 2293 
Q 1191 2003 1191 1497 
Q 1191 994 1439 701 
Q 1688 409 2113 409 
Q 2538 409 2786 701 
Q 3034 994 3034 1497 
Q 3034 2003 2786 2293 
Q 2538 2584 2113 2584 
z
M 3366 4563 
L 3366 3988 
Q 3128 4100 2886 4159 
Q 2644 4219 2406 4219 
Q 1781 4219 1451 3797 
Q 1122 3375 1075 2522 
Q 1259 2794 1537 2939 
Q 1816 3084 2150 3084 
Q 2853 3084 3261 2657 
Q 3669 2231 3669 1497 
Q 3669 778 3244 343 
Q 2819 -91 2113 -91 
Q 1303 -91 875 529 
Q 447 1150 447 2328 
Q 447 3434 972 4092 
Q 1497 4750 2381 4750 
Q 2619 4750 2861 4703 
Q 3103 4656 3366 4563 
z
" transform="scale(0.015625)"/>
       </defs>
       <use xlink:href="#DejaVuSans-19"/>
       <use xlink:href="#DejaVuSans-13" transform="translate(63.625 0)"/>
      </g>
     </g>
    </g>
    <g id="xtick_5">
     <g id="line2d_9">
      <path d="M 787.708063 616.435781 
L 787.708063 22.318125 
" clip-path="url(#pd7b45c4f21)" style="fill: none; stroke-dasharray: 2.96,1.28; stroke-dashoffset: 0; stroke: #b0b0b0; stroke-opacity: 0.4; stroke-width: 0.8"/>
     </g>
     <g id="line2d_10">
      <g>
       <use xlink:href="#m3bb70e554a" x="787.708063" y="616.435781" style="stroke: #000000; stroke-width: 0.8"/>
      </g>
     </g>
     <g id="text_5">
      <!-- 80 -->
      <g transform="translate(781.345563 631.033437) scale(0.1 -0.1)">
       <defs>
        <path id="DejaVuSans-1b" d="M 2034 2216 
Q 1584 2216 1326 1975 
Q 1069 1734 1069 1313 
Q 1069 891 1326 650 
Q 1584 409 2034 409 
Q 2484 409 2743 651 
Q 3003 894 3003 1313 
Q 3003 1734 2745 1975 
Q 2488 2216 2034 2216 
z
M 1403 2484 
Q 997 2584 770 2862 
Q 544 3141 544 3541 
Q 544 4100 942 4425 
Q 1341 4750 2034 4750 
Q 2731 4750 3128 4425 
Q 3525 4100 3525 3541 
Q 3525 3141 3298 2862 
Q 3072 2584 2669 2484 
Q 3125 2378 3379 2068 
Q 3634 1759 3634 1313 
Q 3634 634 3220 271 
Q 2806 -91 2034 -91 
Q 1263 -91 848 271 
Q 434 634 434 1313 
Q 434 1759 690 2068 
Q 947 2378 1403 2484 
z
M 1172 3481 
Q 1172 3119 1398 2916 
Q 1625 2713 2034 2713 
Q 2441 2713 2670 2916 
Q 2900 3119 2900 3481 
Q 2900 3844 2670 4047 
Q 2441 4250 2034 4250 
Q 1625 4250 1398 4047 
Q 1172 3844 1172 3481 
z
" transform="scale(0.015625)"/>
       </defs>
       <use xlink:href="#DejaVuSans-1b"/>
       <use xlink:href="#DejaVuSans-13" transform="translate(63.625 0)"/>
      </g>
     </g>
    </g>
    <g id="xtick_6">
     <g id="line2d_11">
      <path d="M 941.796563 616.435781 
L 941.796563 22.318125 
" clip-path="url(#pd7b45c4f21)" style="fill: none; stroke-dasharray: 2.96,1.28; stroke-dashoffset: 0; stroke: #b0b0b0; stroke-opacity: 0.4; stroke-width: 0.8"/>
     </g>
     <g id="line2d_12">
      <g>
       <use xlink:href="#m3bb70e554a" x="941.796563" y="616.435781" style="stroke: #000000; stroke-width: 0.8"/>
      </g>
     </g>
     <g id="text_6">
      <!-- 100 -->
      <g transform="translate(932.252813 631.033437) scale(0.1 -0.1)">
       <defs>
        <path id="DejaVuSans-14" d="M 794 531 
L 1825 531 
L 1825 4091 
L 703 3866 
L 703 4441 
L 1819 4666 
L 2450 4666 
L 2450 531 
L 3481 531 
L 3481 0 
L 794 0 
L 794 531 
z
" transform="scale(0.015625)"/>
       </defs>
       <use xlink:href="#DejaVuSans-14"/>
       <use xlink:href="#DejaVuSans-13" transform="translate(63.625 0)"/>
       <use xlink:href="#DejaVuSans-13" transform="translate(127.25 0)"/>
      </g>
     </g>
    </g>
    <g id="text_7">
     <!-- Completion (%) -->
     <g transform="translate(517.695625 645.034219) scale(0.1 -0.1)">
      <defs>
       <path id="DejaVuSans-26" d="M 4122 4306 
L 4122 3641 
Q 3803 3938 3442 4084 
Q 3081 4231 2675 4231 
Q 1875 4231 1450 3742 
Q 1025 3253 1025 2328 
Q 1025 1406 1450 917 
Q 1875 428 2675 428 
Q 3081 428 3442 575 
Q 3803 722 4122 1019 
L 4122 359 
Q 3791 134 3420 21 
Q 3050 -91 2638 -91 
Q 1578 -91 968 557 
Q 359 1206 359 2328 
Q 359 3453 968 4101 
Q 1578 4750 2638 4750 
Q 3056 4750 3426 4639 
Q 3797 4528 4122 4306 
z
" transform="scale(0.015625)"/>
       <path id="DejaVuSans-52" d="M 1959 3097 
Q 1497 3097 1228 2736 
Q 959 2375 959 1747 
Q 959 1119 1226 758 
Q 1494 397 1959 397 
Q 2419 397 2687 759 
Q 2956 1122 2956 1747 
Q 2956 2369 2687 2733 
Q 2419 3097 1959 3097 
z
M 1959 3584 
Q 2709 3584 3137 3096 
Q 3566 2609 3566 1747 
Q 3566 888 3137 398 
Q 2709 -91 1959 -91 
Q 1206 -91 779 398 
Q 353 888 353 1747 
Q 353 2609 779 3096 
Q 1206 3584 1959 3584 
z
" transform="scale(0.015625)"/>
       <path id="DejaVuSans-50" d="M 3328 2828 
Q 3544 3216 3844 3400 
Q 4144 3584 4550 3584 
Q 5097 3584 5394 3201 
Q 5691 2819 5691 2113 
L 5691 0 
L 5113 0 
L 5113 2094 
Q 5113 2597 4934 2840 
Q 4756 3084 4391 3084 
Q 3944 3084 3684 2787 
Q 3425 2491 3425 1978 
L 3425 0 
L 2847 0 
L 2847 2094 
Q 2847 2600 2669 2842 
Q 2491 3084 2119 3084 
Q 1678 3084 1418 2786 
Q 1159 2488 1159 1978 
L 1159 0 
L 581 0 
L 581 3500 
L 1159 3500 
L 1159 2956 
Q 1356 3278 1631 3431 
Q 1906 3584 2284 3584 
Q 2666 3584 2933 3390 
Q 3200 3197 3328 2828 
z
" transform="scale(0.015625)"/>
       <path id="DejaVuSans-53" d="M 1159 525 
L 1159 -1331 
L 581 -1331 
L 581 3500 
L 1159 3500 
L 1159 2969 
Q 1341 3281 1617 3432 
Q 1894 3584 2278 3584 
Q 2916 3584 3314 3078 
Q 3713 2572 3713 1747 
Q 3713 922 3314 415 
Q 2916 -91 2278 -91 
Q 1894 -91 1617 61 
Q 1341 213 1159 525 
z
M 3116 1747 
Q 3116 2381 2855 2742 
Q 2594 3103 2138 3103 
Q 1681 3103 1420 2742 
Q 1159 2381 1159 1747 
Q 1159 1113 1420 752 
Q 1681 391 2138 391 
Q 2594 391 2855 752 
Q 3116 1113 3116 1747 
z
" transform="scale(0.015625)"/>
       <path id="DejaVuSans-4f" d="M 603 4863 
L 1178 4863 
L 1178 0 
L 603 0 
L 603 4863 
z
" transform="scale(0.015625)"/>
       <path id="DejaVuSans-48" d="M 3597 1894 
L 3597 1613 
L 953 1613 
Q 991 1019 1311 708 
Q 1631 397 2203 397 
Q 2534 397 2845 478 
Q 3156 559 3463 722 
L 3463 178 
Q 3153 47 2828 -22 
Q 2503 -91 2169 -91 
Q 1331 -91 842 396 
Q 353 884 353 1716 
Q 353 2575 817 3079 
Q 1281 3584 2069 3584 
Q 2775 3584 3186 3129 
Q 3597 2675 3597 1894 
z
M 3022 2063 
Q 3016 2534 2758 2815 
Q 2500 3097 2075 3097 
Q 1594 3097 1305 2825 
Q 1016 2553 972 2059 
L 3022 2063 
z
" transform="scale(0.015625)"/>
       <path id="DejaVuSans-57" d="M 1172 4494 
L 1172 3500 
L 2356 3500 
L 2356 3053 
L 1172 3053 
L 1172 1153 
Q 1172 725 1289 603 
Q 1406 481 1766 481 
L 2356 481 
L 2356 0 
L 1766 0 
Q 1100 0 847 248 
Q 594 497 594 1153 
L 594 3053 
L 172 3053 
L 172 3500 
L 594 3500 
L 594 4494 
L 1172 4494 
z
" transform="scale(0.015625)"/>
       <path id="DejaVuSans-4c" d="M 603 3500 
L 1178 3500 
L 1178 0 
L 603 0 
L 603 3500 
z
M 603 4863 
L 1178 4863 
L 1178 4134 
L 603 4134 
L 603 4863 
z
" transform="scale(0.015625)"/>
       <path id="DejaVuSans-51" d="M 3513 2113 
L 3513 0 
L 2938 0 
L 2938 2094 
Q 2938 2591 2744 2837 
Q 2550 3084 2163 3084 
Q 1697 3084 1428 2787 
Q 1159 2491 1159 1978 
L 1159 0 
L 581 0 
L 581 3500 
L 1159 3500 
L 1159 2956 
Q 1366 3272 1645 3428 
Q 1925 3584 2291 3584 
Q 2894 3584 3203 3211 
Q 3513 2838 3513 2113 
z
" transform="scale(0.015625)"/>
       <path id="DejaVuSans-3" transform="scale(0.015625)"/>
       <path id="DejaVuSans-b" d="M 1984 4856 
Q 1566 4138 1362 3434 
Q 1159 2731 1159 2009 
Q 1159 1288 1364 580 
Q 1569 -128 1984 -844 
L 1484 -844 
Q 1016 -109 783 600 
Q 550 1309 550 2009 
Q 550 2706 781 3412 
Q 1013 4119 1484 4856 
L 1984 4856 
z
" transform="scale(0.015625)"/>
       <path id="DejaVuSans-8" d="M 4653 2053 
Q 4381 2053 4226 1822 
Q 4072 1591 4072 1178 
Q 4072 772 4226 539 
Q 4381 306 4653 306 
Q 4919 306 5073 539 
Q 5228 772 5228 1178 
Q 5228 1588 5073 1820 
Q 4919 2053 4653 2053 
z
M 4653 2450 
Q 5147 2450 5437 2106 
Q 5728 1763 5728 1178 
Q 5728 594 5436 251 
Q 5144 -91 4653 -91 
Q 4153 -91 3862 251 
Q 3572 594 3572 1178 
Q 3572 1766 3864 2108 
Q 4156 2450 4653 2450 
z
M 1428 4353 
Q 1159 4353 1004 4120 
Q 850 3888 850 3481 
Q 850 3069 1003 2837 
Q 1156 2606 1428 2606 
Q 1700 2606 1854 2837 
Q 2009 3069 2009 3481 
Q 2009 3884 1853 4118 
Q 1697 4353 1428 4353 
z
M 4250 4750 
L 4750 4750 
L 1831 -91 
L 1331 -91 
L 4250 4750 
z
M 1428 4750 
Q 1922 4750 2215 4408 
Q 2509 4066 2509 3481 
Q 2509 2891 2217 2550 
Q 1925 2209 1428 2209 
Q 931 2209 642 2551 
Q 353 2894 353 3481 
Q 353 4063 643 4406 
Q 934 4750 1428 4750 
z
" transform="scale(0.015625)"/>
       <path id="DejaVuSans-c" d="M 513 4856 
L 1013 4856 
Q 1481 4119 1714 3412 
Q 1947 2706 1947 2009 
Q 1947 1309 1714 600 
Q 1481 -109 1013 -844 
L 513 -844 
Q 928 -128 1133 580 
Q 1338 1288 1338 2009 
Q 1338 2731 1133 3434 
Q 928 4138 513 4856 
z
" transform="scale(0.015625)"/>
      </defs>
      <use xlink:href="#DejaVuSans-26"/>
      <use xlink:href="#DejaVuSans-52" transform="translate(69.828125 0)"/>
      <use xlink:href="#DejaVuSans-50" transform="translate(131.015625 0)"/>
      <use xlink:href="#DejaVuSans-53" transform="translate(228.421875 0)"/>
      <use xlink:href="#DejaVuSans-4f" transform="translate(291.90625 0)"/>
      <use xlink:href="#DejaVuSans-48" transform="translate(319.6875 0)"/>
      <use xlink:href="#DejaVuSans-57" transform="translate(381.21875 0)"/>
      <use xlink:href="#DejaVuSans-4c" transform="translate(420.421875 0)"/>
      <use xlink:href="#DejaVuSans-52" transform="translate(448.203125 0)"/>
      <use xlink:href="#DejaVuSans-51" transform="translate(509.390625 0)"/>
      <use xlink:href="#DejaVuSans-3" transform="translate(572.765625 0)"/>
      <use xlink:href="#DejaVuSans-b" transform="translate(604.546875 0)"/>
      <use xlink:href="#DejaVuSans-8" transform="translate(643.5625 0)"/>
      <use xlink:href="#DejaVuSans-c" transform="translate(738.578125 0)"/>
     </g>
    </g>
   </g>
   <g id="matplotlib.axis_2">
    <g id="ytick_1">
     <g id="line2d_13">
      <defs>
       <path id="m8fb4a97611" d="M 0 0 
L -3.5 0 
" style="stroke: #000000; stroke-width: 0.8"/>
      </defs>
      <g>
       <use xlink:href="#m8fb4a97611" x="171.354062" y="568.84899" style="stroke: #000000; stroke-width: 0.8"/>
      </g>
     </g>
     <g id="text_8">
      <!-- aurora_subneptune_v1 -->
      <g transform="translate(61.32375 572.268287) scale(0.09 -0.09)">
       <defs>
        <path id="DejaVuSans-44" d="M 2194 1759 
Q 1497 1759 1228 1600 
Q 959 1441 959 1056 
Q 959 750 1161 570 
Q 1363 391 1709 391 
Q 2188 391 2477 730 
Q 2766 1069 2766 1631 
L 2766 1759 
L 2194 1759 
z
M 3341 1997 
L 3341 0 
L 2766 0 
L 2766 531 
Q 2569 213 2275 61 
Q 1981 -91 1556 -91 
Q 1019 -91 701 211 
Q 384 513 384 1019 
Q 384 1609 779 1909 
Q 1175 2209 1959 2209 
L 2766 2209 
L 2766 2266 
Q 2766 2663 2505 2880 
Q 2244 3097 1772 3097 
Q 1472 3097 1187 3025 
Q 903 2953 641 2809 
L 641 3341 
Q 956 3463 1253 3523 
Q 1550 3584 1831 3584 
Q 2591 3584 2966 3190 
Q 3341 2797 3341 1997 
z
" transform="scale(0.015625)"/>
        <path id="DejaVuSans-58" d="M 544 1381 
L 544 3500 
L 1119 3500 
L 1119 1403 
Q 1119 906 1312 657 
Q 1506 409 1894 409 
Q 2359 409 2629 706 
Q 2900 1003 2900 1516 
L 2900 3500 
L 3475 3500 
L 3475 0 
L 2900 0 
L 2900 538 
Q 2691 219 2414 64 
Q 2138 -91 1772 -91 
Q 1169 -91 856 284 
Q 544 659 544 1381 
z
M 1991 3584 
L 1991 3584 
z
" transform="scale(0.015625)"/>
        <path id="DejaVuSans-55" d="M 2631 2963 
Q 2534 3019 2420 3045 
Q 2306 3072 2169 3072 
Q 1681 3072 1420 2755 
Q 1159 2438 1159 1844 
L 1159 0 
L 581 0 
L 581 3500 
L 1159 3500 
L 1159 2956 
Q 1341 3275 1631 3429 
Q 1922 3584 2338 3584 
Q 2397 3584 2469 3576 
Q 2541 3569 2628 3553 
L 2631 2963 
z
" transform="scale(0.015625)"/>
        <path id="DejaVuSans-42" d="M 3263 -1063 
L 3263 -1509 
L -63 -1509 
L -63 -1063 
L 3263 -1063 
z
" transform="scale(0.015625)"/>
        <path id="DejaVuSans-56" d="M 2834 3397 
L 2834 2853 
Q 2591 2978 2328 3040 
Q 2066 3103 1784 3103 
Q 1356 3103 1142 2972 
Q 928 2841 928 2578 
Q 928 2378 1081 2264 
Q 1234 2150 1697 2047 
L 1894 2003 
Q 2506 1872 2764 1633 
Q 3022 1394 3022 966 
Q 3022 478 2636 193 
Q 2250 -91 1575 -91 
Q 1294 -91 989 -36 
Q 684 19 347 128 
L 347 722 
Q 666 556 975 473 
Q 1284 391 1588 391 
Q 1994 391 2212 530 
Q 2431 669 2431 922 
Q 2431 1156 2273 1281 
Q 2116 1406 1581 1522 
L 1381 1569 
Q 847 1681 609 1914 
Q 372 2147 372 2553 
Q 372 3047 722 3315 
Q 1072 3584 1716 3584 
Q 2034 3584 2315 3537 
Q 2597 3491 2834 3397 
z
" transform="scale(0.015625)"/>
        <path id="DejaVuSans-45" d="M 3116 1747 
Q 3116 2381 2855 2742 
Q 2594 3103 2138 3103 
Q 1681 3103 1420 2742 
Q 1159 2381 1159 1747 
Q 1159 1113 1420 752 
Q 1681 391 2138 391 
Q 2594 391 2855 752 
Q 3116 1113 3116 1747 
z
M 1159 2969 
Q 1341 3281 1617 3432 
Q 1894 3584 2278 3584 
Q 2916 3584 3314 3078 
Q 3713 2572 3713 1747 
Q 3713 922 3314 415 
Q 2916 -91 2278 -91 
Q 1894 -91 1617 61 
Q 1341 213 1159 525 
L 1159 0 
L 581 0 
L 581 4863 
L 1159 4863 
L 1159 2969 
z
" transform="scale(0.015625)"/>
        <path id="DejaVuSans-59" d="M 191 3500 
L 800 3500 
L 1894 563 
L 2988 3500 
L 3597 3500 
L 2284 0 
L 1503 0 
L 191 3500 
z
" transform="scale(0.015625)"/>
       </defs>
       <use xlink:href="#DejaVuSans-44"/>
       <use xlink:href="#DejaVuSans-58" transform="translate(61.28125 0)"/>
       <use xlink:href="#DejaVuSans-55" transform="translate(124.65625 0)"/>
       <use xlink:href="#DejaVuSans-52" transform="translate(163.5625 0)"/>
       <use xlink:href="#DejaVuSans-55" transform="translate(224.75 0)"/>
       <use xlink:href="#DejaVuSans-44" transform="translate(265.859375 0)"/>
       <use xlink:href="#DejaVuSans-42" transform="translate(327.140625 0)"/>
       <use xlink:href="#DejaVuSans-56" transform="translate(377.140625 0)"/>
       <use xlink:href="#DejaVuSans-58" transform="translate(429.234375 0)"/>
       <use xlink:href="#DejaVuSans-45" transform="translate(492.609375 0)"/>
       <use xlink:href="#DejaVuSans-51" transform="translate(556.09375 0)"/>
       <use xlink:href="#DejaVuSans-48" transform="translate(619.46875 0)"/>
       <use xlink:href="#DejaVuSans-53" transform="translate(681 0)"/>
       <use xlink:href="#DejaVuSans-57" transform="translate(744.484375 0)"/>
       <use xlink:href="#DejaVuSans-58" transform="translate(783.6875 0)"/>
       <use xlink:href="#DejaVuSans-51" transform="translate(847.0625 0)"/>
       <use xlink:href="#DejaVuSans-48" transform="translate(910.4375 0)"/>
       <use xlink:href="#DejaVuSans-42" transform="translate(971.96875 0)"/>
       <use xlink:href="#DejaVuSans-59" transform="translate(1021.96875 0)"/>
       <use xlink:href="#DejaVuSans-14" transform="translate(1081.15625 0)"/>
      </g>
     </g>
    </g>
    <g id="ytick_2">
     <g id="line2d_14">
      <g>
       <use xlink:href="#m8fb4a97611" x="171.354062" y="506.480981" style="stroke: #000000; stroke-width: 0.8"/>
      </g>
     </g>
     <g id="text_9">
      <!-- aurora_subneptune_v1_dhuang -->
      <g transform="translate(22.77 509.900278) scale(0.09 -0.09)">
       <defs>
        <path id="DejaVuSans-47" d="M 2906 2969 
L 2906 4863 
L 3481 4863 
L 3481 0 
L 2906 0 
L 2906 525 
Q 2725 213 2448 61 
Q 2172 -91 1784 -91 
Q 1150 -91 751 415 
Q 353 922 353 1747 
Q 353 2572 751 3078 
Q 1150 3584 1784 3584 
Q 2172 3584 2448 3432 
Q 2725 3281 2906 2969 
z
M 947 1747 
Q 947 1113 1208 752 
Q 1469 391 1925 391 
Q 2381 391 2643 752 
Q 2906 1113 2906 1747 
Q 2906 2381 2643 2742 
Q 2381 3103 1925 3103 
Q 1469 3103 1208 2742 
Q 947 2381 947 1747 
z
" transform="scale(0.015625)"/>
        <path id="DejaVuSans-4b" d="M 3513 2113 
L 3513 0 
L 2938 0 
L 2938 2094 
Q 2938 2591 2744 2837 
Q 2550 3084 2163 3084 
Q 1697 3084 1428 2787 
Q 1159 2491 1159 1978 
L 1159 0 
L 581 0 
L 581 4863 
L 1159 4863 
L 1159 2956 
Q 1366 3272 1645 3428 
Q 1925 3584 2291 3584 
Q 2894 3584 3203 3211 
Q 3513 2838 3513 2113 
z
" transform="scale(0.015625)"/>
        <path id="DejaVuSans-4a" d="M 2906 1791 
Q 2906 2416 2648 2759 
Q 2391 3103 1925 3103 
Q 1463 3103 1205 2759 
Q 947 2416 947 1791 
Q 947 1169 1205 825 
Q 1463 481 1925 481 
Q 2391 481 2648 825 
Q 2906 1169 2906 1791 
z
M 3481 434 
Q 3481 -459 3084 -895 
Q 2688 -1331 1869 -1331 
Q 1566 -1331 1297 -1286 
Q 1028 -1241 775 -1147 
L 775 -588 
Q 1028 -725 1275 -790 
Q 1522 -856 1778 -856 
Q 2344 -856 2625 -561 
Q 2906 -266 2906 331 
L 2906 616 
Q 2728 306 2450 153 
Q 2172 0 1784 0 
Q 1141 0 747 490 
Q 353 981 353 1791 
Q 353 2603 747 3093 
Q 1141 3584 1784 3584 
Q 2172 3584 2450 3431 
Q 2728 3278 2906 2969 
L 2906 3500 
L 3481 3500 
L 3481 434 
z
" transform="scale(0.015625)"/>
       </defs>
       <use xlink:href="#DejaVuSans-44"/>
       <use xlink:href="#DejaVuSans-58" transform="translate(61.28125 0)"/>
       <use xlink:href="#DejaVuSans-55" transform="translate(124.65625 0)"/>
       <use xlink:href="#DejaVuSans-52" transform="translate(163.5625 0)"/>
       <use xlink:href="#DejaVuSans-55" transform="translate(224.75 0)"/>
       <use xlink:href="#DejaVuSans-44" transform="translate(265.859375 0)"/>
       <use xlink:href="#DejaVuSans-42" transform="translate(327.140625 0)"/>
       <use xlink:href="#DejaVuSans-56" transform="translate(377.140625 0)"/>
       <use xlink:href="#DejaVuSans-58" transform="translate(429.234375 0)"/>
       <use xlink:href="#DejaVuSans-45" transform="translate(492.609375 0)"/>
       <use xlink:href="#DejaVuSans-51" transform="translate(556.09375 0)"/>
       <use xlink:href="#DejaVuSans-48" transform="translate(619.46875 0)"/>
       <use xlink:href="#DejaVuSans-53" transform="translate(681 0)"/>
       <use xlink:href="#DejaVuSans-57" transform="translate(744.484375 0)"/>
       <use xlink:href="#DejaVuSans-58" transform="translate(783.6875 0)"/>
       <use xlink:href="#DejaVuSans-51" transform="translate(847.0625 0)"/>
       <use xlink:href="#DejaVuSans-48" transform="translate(910.4375 0)"/>
       <use xlink:href="#DejaVuSans-42" transform="translate(971.96875 0)"/>
       <use xlink:href="#DejaVuSans-59" transform="translate(1021.96875 0)"/>
       <use xlink:href="#DejaVuSans-14" transform="translate(1081.15625 0)"/>
       <use xlink:href="#DejaVuSans-42" transform="translate(1144.78125 0)"/>
       <use xlink:href="#DejaVuSans-47" transform="translate(1194.78125 0)"/>
       <use xlink:href="#DejaVuSans-4b" transform="translate(1258.265625 0)"/>
       <use xlink:href="#DejaVuSans-58" transform="translate(1321.640625 0)"/>
       <use xlink:href="#DejaVuSans-44" transform="translate(1385.015625 0)"/>
       <use xlink:href="#DejaVuSans-51" transform="translate(1446.296875 0)"/>
       <use xlink:href="#DejaVuSans-4a" transform="translate(1509.671875 0)"/>
      </g>
     </g>
    </g>
    <g id="ytick_3">
     <g id="line2d_15">
      <g>
       <use xlink:href="#m8fb4a97611" x="171.354062" y="444.112972" style="stroke: #000000; stroke-width: 0.8"/>
      </g>
     </g>
     <g id="text_10">
      <!-- aurora_subneptune_v0 -->
      <g transform="translate(61.32375 447.532269) scale(0.09 -0.09)">
       <use xlink:href="#DejaVuSans-44"/>
       <use xlink:href="#DejaVuSans-58" transform="translate(61.28125 0)"/>
       <use xlink:href="#DejaVuSans-55" transform="translate(124.65625 0)"/>
       <use xlink:href="#DejaVuSans-52" transform="translate(163.5625 0)"/>
       <use xlink:href="#DejaVuSans-55" transform="translate(224.75 0)"/>
       <use xlink:href="#DejaVuSans-44" transform="translate(265.859375 0)"/>
       <use xlink:href="#DejaVuSans-42" transform="translate(327.140625 0)"/>
       <use xlink:href="#DejaVuSans-56" transform="translate(377.140625 0)"/>
       <use xlink:href="#DejaVuSans-58" transform="translate(429.234375 0)"/>
       <use xlink:href="#DejaVuSans-45" transform="translate(492.609375 0)"/>
       <use xlink:href="#DejaVuSans-51" transform="translate(556.09375 0)"/>
       <use xlink:href="#DejaVuSans-48" transform="translate(619.46875 0)"/>
       <use xlink:href="#DejaVuSans-53" transform="translate(681 0)"/>
       <use xlink:href="#DejaVuSans-57" transform="translate(744.484375 0)"/>
       <use xlink:href="#DejaVuSans-58" transform="translate(783.6875 0)"/>
       <use xlink:href="#DejaVuSans-51" transform="translate(847.0625 0)"/>
       <use xlink:href="#DejaVuSans-48" transform="translate(910.4375 0)"/>
       <use xlink:href="#DejaVuSans-42" transform="translate(971.96875 0)"/>
       <use xlink:href="#DejaVuSans-59" transform="translate(1021.96875 0)"/>
       <use xlink:href="#DejaVuSans-13" transform="translate(1081.15625 0)"/>
      </g>
     </g>
    </g>
    <g id="ytick_4">
     <g id="line2d_16">
      <g>
       <use xlink:href="#m8fb4a97611" x="171.354062" y="381.744962" style="stroke: #000000; stroke-width: 0.8"/>
      </g>
     </g>
     <g id="text_11">
      <!-- hpc_validation_aurora_subneptune -->
      <g transform="translate(7.2 385.164259) scale(0.09 -0.09)">
       <defs>
        <path id="DejaVuSans-46" d="M 3122 3366 
L 3122 2828 
Q 2878 2963 2633 3030 
Q 2388 3097 2138 3097 
Q 1578 3097 1268 2742 
Q 959 2388 959 1747 
Q 959 1106 1268 751 
Q 1578 397 2138 397 
Q 2388 397 2633 464 
Q 2878 531 3122 666 
L 3122 134 
Q 2881 22 2623 -34 
Q 2366 -91 2075 -91 
Q 1284 -91 818 406 
Q 353 903 353 1747 
Q 353 2603 823 3093 
Q 1294 3584 2113 3584 
Q 2378 3584 2631 3529 
Q 2884 3475 3122 3366 
z
" transform="scale(0.015625)"/>
       </defs>
       <use xlink:href="#DejaVuSans-4b"/>
       <use xlink:href="#DejaVuSans-53" transform="translate(63.375 0)"/>
       <use xlink:href="#DejaVuSans-46" transform="translate(126.859375 0)"/>
       <use xlink:href="#DejaVuSans-42" transform="translate(181.84375 0)"/>
       <use xlink:href="#DejaVuSans-59" transform="translate(231.84375 0)"/>
       <use xlink:href="#DejaVuSans-44" transform="translate(291.03125 0)"/>
       <use xlink:href="#DejaVuSans-4f" transform="translate(352.3125 0)"/>
       <use xlink:href="#DejaVuSans-4c" transform="translate(380.09375 0)"/>
       <use xlink:href="#DejaVuSans-47" transform="translate(407.875 0)"/>
       <use xlink:href="#DejaVuSans-44" transform="translate(471.359375 0)"/>
       <use xlink:href="#DejaVuSans-57" transform="translate(532.640625 0)"/>
       <use xlink:href="#DejaVuSans-4c" transform="translate(571.84375 0)"/>
       <use xlink:href="#DejaVuSans-52" transform="translate(599.625 0)"/>
       <use xlink:href="#DejaVuSans-51" transform="translate(660.8125 0)"/>
       <use xlink:href="#DejaVuSans-42" transform="translate(724.1875 0)"/>
       <use xlink:href="#DejaVuSans-44" transform="translate(774.1875 0)"/>
       <use xlink:href="#DejaVuSans-58" transform="translate(835.46875 0)"/>
       <use xlink:href="#DejaVuSans-55" transform="translate(898.84375 0)"/>
       <use xlink:href="#DejaVuSans-52" transform="translate(937.75 0)"/>
       <use xlink:href="#DejaVuSans-55" transform="translate(998.9375 0)"/>
       <use xlink:href="#DejaVuSans-44" transform="translate(1040.046875 0)"/>
       <use xlink:href="#DejaVuSans-42" transform="translate(1101.328125 0)"/>
       <use xlink:href="#DejaVuSans-56" transform="translate(1151.328125 0)"/>
       <use xlink:href="#DejaVuSans-58" transform="translate(1203.421875 0)"/>
       <use xlink:href="#DejaVuSans-45" transform="translate(1266.796875 0)"/>
       <use xlink:href="#DejaVuSans-51" transform="translate(1330.28125 0)"/>
       <use xlink:href="#DejaVuSans-48" transform="translate(1393.65625 0)"/>
       <use xlink:href="#DejaVuSans-53" transform="translate(1455.1875 0)"/>
       <use xlink:href="#DejaVuSans-57" transform="translate(1518.671875 0)"/>
       <use xlink:href="#DejaVuSans-58" transform="translate(1557.875 0)"/>
       <use xlink:href="#DejaVuSans-51" transform="translate(1621.25 0)"/>
       <use xlink:href="#DejaVuSans-48" transform="translate(1684.625 0)"/>
      </g>
     </g>
    </g>
    <g id="ytick_5">
     <g id="line2d_17">
      <g>
       <use xlink:href="#m8fb4a97611" x="171.354062" y="319.376953" style="stroke: #000000; stroke-width: 0.8"/>
      </g>
     </g>
     <g id="text_12">
      <!-- aurora_cahoy_solar_climate_v0 -->
      <g transform="translate(23.648906 322.79625) scale(0.09 -0.09)">
       <defs>
        <path id="DejaVuSans-5c" d="M 2059 -325 
Q 1816 -950 1584 -1140 
Q 1353 -1331 966 -1331 
L 506 -1331 
L 506 -850 
L 844 -850 
Q 1081 -850 1212 -737 
Q 1344 -625 1503 -206 
L 1606 56 
L 191 3500 
L 800 3500 
L 1894 763 
L 2988 3500 
L 3597 3500 
L 2059 -325 
z
" transform="scale(0.015625)"/>
       </defs>
       <use xlink:href="#DejaVuSans-44"/>
       <use xlink:href="#DejaVuSans-58" transform="translate(61.28125 0)"/>
       <use xlink:href="#DejaVuSans-55" transform="translate(124.65625 0)"/>
       <use xlink:href="#DejaVuSans-52" transform="translate(163.5625 0)"/>
       <use xlink:href="#DejaVuSans-55" transform="translate(224.75 0)"/>
       <use xlink:href="#DejaVuSans-44" transform="translate(265.859375 0)"/>
       <use xlink:href="#DejaVuSans-42" transform="translate(327.140625 0)"/>
       <use xlink:href="#DejaVuSans-46" transform="translate(377.140625 0)"/>
       <use xlink:href="#DejaVuSans-44" transform="translate(432.125 0)"/>
       <use xlink:href="#DejaVuSans-4b" transform="translate(493.40625 0)"/>
       <use xlink:href="#DejaVuSans-52" transform="translate(556.78125 0)"/>
       <use xlink:href="#DejaVuSans-5c" transform="translate(617.96875 0)"/>
       <use xlink:href="#DejaVuSans-42" transform="translate(677.15625 0)"/>
       <use xlink:href="#DejaVuSans-56" transform="translate(727.15625 0)"/>
       <use xlink:href="#DejaVuSans-52" transform="translate(779.25 0)"/>
       <use xlink:href="#DejaVuSans-4f" transform="translate(840.4375 0)"/>
       <use xlink:href="#DejaVuSans-44" transform="translate(868.21875 0)"/>
       <use xlink:href="#DejaVuSans-55" transform="translate(929.5 0)"/>
       <use xlink:href="#DejaVuSans-42" transform="translate(970.609375 0)"/>
       <use xlink:href="#DejaVuSans-46" transform="translate(1020.609375 0)"/>
       <use xlink:href="#DejaVuSans-4f" transform="translate(1075.59375 0)"/>
       <use xlink:href="#DejaVuSans-4c" transform="translate(1103.375 0)"/>
       <use xlink:href="#DejaVuSans-50" transform="translate(1131.15625 0)"/>
       <use xlink:href="#DejaVuSans-44" transform="translate(1228.5625 0)"/>
       <use xlink:href="#DejaVuSans-57" transform="translate(1289.84375 0)"/>
       <use xlink:href="#DejaVuSans-48" transform="translate(1329.046875 0)"/>
       <use xlink:href="#DejaVuSans-42" transform="translate(1390.578125 0)"/>
       <use xlink:href="#DejaVuSans-59" transform="translate(1440.578125 0)"/>
       <use xlink:href="#DejaVuSans-13" transform="translate(1499.765625 0)"/>
      </g>
     </g>
    </g>
    <g id="ytick_6">
     <g id="line2d_18">
      <g>
       <use xlink:href="#m8fb4a97611" x="171.354062" y="257.008944" style="stroke: #000000; stroke-width: 0.8"/>
      </g>
     </g>
     <g id="text_13">
      <!-- aurora_cahoy2010_replication_v0 -->
      <g transform="translate(12.995156 260.428241) scale(0.09 -0.09)">
       <use xlink:href="#DejaVuSans-44"/>
       <use xlink:href="#DejaVuSans-58" transform="translate(61.28125 0)"/>
       <use xlink:href="#DejaVuSans-55" transform="translate(124.65625 0)"/>
       <use xlink:href="#DejaVuSans-52" transform="translate(163.5625 0)"/>
       <use xlink:href="#DejaVuSans-55" transform="translate(224.75 0)"/>
       <use xlink:href="#DejaVuSans-44" transform="translate(265.859375 0)"/>
       <use xlink:href="#DejaVuSans-42" transform="translate(327.140625 0)"/>
       <use xlink:href="#DejaVuSans-46" transform="translate(377.140625 0)"/>
       <use xlink:href="#DejaVuSans-44" transform="translate(432.125 0)"/>
       <use xlink:href="#DejaVuSans-4b" transform="translate(493.40625 0)"/>
       <use xlink:href="#DejaVuSans-52" transform="translate(556.78125 0)"/>
       <use xlink:href="#DejaVuSans-5c" transform="translate(617.96875 0)"/>
       <use xlink:href="#DejaVuSans-15" transform="translate(677.15625 0)"/>
       <use xlink:href="#DejaVuSans-13" transform="translate(740.78125 0)"/>
       <use xlink:href="#DejaVuSans-14" transform="translate(804.40625 0)"/>
       <use xlink:href="#DejaVuSans-13" transform="translate(868.03125 0)"/>
       <use xlink:href="#DejaVuSans-42" transform="translate(931.65625 0)"/>
       <use xlink:href="#DejaVuSans-55" transform="translate(981.65625 0)"/>
       <use xlink:href="#DejaVuSans-48" transform="translate(1020.5625 0)"/>
       <use xlink:href="#DejaVuSans-53" transform="translate(1082.09375 0)"/>
       <use xlink:href="#DejaVuSans-4f" transform="translate(1145.578125 0)"/>
       <use xlink:href="#DejaVuSans-4c" transform="translate(1173.359375 0)"/>
       <use xlink:href="#DejaVuSans-46" transform="translate(1201.140625 0)"/>
       <use xlink:href="#DejaVuSans-44" transform="translate(1256.125 0)"/>
       <use xlink:href="#DejaVuSans-57" transform="translate(1317.40625 0)"/>
       <use xlink:href="#DejaVuSans-4c" transform="translate(1356.609375 0)"/>
       <use xlink:href="#DejaVuSans-52" transform="translate(1384.390625 0)"/>
       <use xlink:href="#DejaVuSans-51" transform="translate(1445.578125 0)"/>
       <use xlink:href="#DejaVuSans-42" transform="translate(1508.953125 0)"/>
       <use xlink:href="#DejaVuSans-59" transform="translate(1558.953125 0)"/>
       <use xlink:href="#DejaVuSans-13" transform="translate(1618.140625 0)"/>
      </g>
     </g>
    </g>
    <g id="ytick_7">
     <g id="line2d_19">
      <g>
       <use xlink:href="#m8fb4a97611" x="171.354062" y="194.640935" style="stroke: #000000; stroke-width: 0.8"/>
      </g>
     </g>
     <g id="text_14">
      <!-- aurora_cahoy_exact_304 -->
      <g transform="translate(52.531875 198.060231) scale(0.09 -0.09)">
       <defs>
        <path id="DejaVuSans-5b" d="M 3513 3500 
L 2247 1797 
L 3578 0 
L 2900 0 
L 1881 1375 
L 863 0 
L 184 0 
L 1544 1831 
L 300 3500 
L 978 3500 
L 1906 2253 
L 2834 3500 
L 3513 3500 
z
" transform="scale(0.015625)"/>
        <path id="DejaVuSans-16" d="M 2597 2516 
Q 3050 2419 3304 2112 
Q 3559 1806 3559 1356 
Q 3559 666 3084 287 
Q 2609 -91 1734 -91 
Q 1441 -91 1130 -33 
Q 819 25 488 141 
L 488 750 
Q 750 597 1062 519 
Q 1375 441 1716 441 
Q 2309 441 2620 675 
Q 2931 909 2931 1356 
Q 2931 1769 2642 2001 
Q 2353 2234 1838 2234 
L 1294 2234 
L 1294 2753 
L 1863 2753 
Q 2328 2753 2575 2939 
Q 2822 3125 2822 3475 
Q 2822 3834 2567 4026 
Q 2313 4219 1838 4219 
Q 1578 4219 1281 4162 
Q 984 4106 628 3988 
L 628 4550 
Q 988 4650 1302 4700 
Q 1616 4750 1894 4750 
Q 2613 4750 3031 4423 
Q 3450 4097 3450 3541 
Q 3450 3153 3228 2886 
Q 3006 2619 2597 2516 
z
" transform="scale(0.015625)"/>
       </defs>
       <use xlink:href="#DejaVuSans-44"/>
       <use xlink:href="#DejaVuSans-58" transform="translate(61.28125 0)"/>
       <use xlink:href="#DejaVuSans-55" transform="translate(124.65625 0)"/>
       <use xlink:href="#DejaVuSans-52" transform="translate(163.5625 0)"/>
       <use xlink:href="#DejaVuSans-55" transform="translate(224.75 0)"/>
       <use xlink:href="#DejaVuSans-44" transform="translate(265.859375 0)"/>
       <use xlink:href="#DejaVuSans-42" transform="translate(327.140625 0)"/>
       <use xlink:href="#DejaVuSans-46" transform="translate(377.140625 0)"/>
       <use xlink:href="#DejaVuSans-44" transform="translate(432.125 0)"/>
       <use xlink:href="#DejaVuSans-4b" transform="translate(493.40625 0)"/>
       <use xlink:href="#DejaVuSans-52" transform="translate(556.78125 0)"/>
       <use xlink:href="#DejaVuSans-5c" transform="translate(617.96875 0)"/>
       <use xlink:href="#DejaVuSans-42" transform="translate(677.15625 0)"/>
       <use xlink:href="#DejaVuSans-48" transform="translate(727.15625 0)"/>
       <use xlink:href="#DejaVuSans-5b" transform="translate(786.9375 0)"/>
       <use xlink:href="#DejaVuSans-44" transform="translate(846.125 0)"/>
       <use xlink:href="#DejaVuSans-46" transform="translate(907.40625 0)"/>
       <use xlink:href="#DejaVuSans-57" transform="translate(962.390625 0)"/>
       <use xlink:href="#DejaVuSans-42" transform="translate(1001.59375 0)"/>
       <use xlink:href="#DejaVuSans-16" transform="translate(1051.59375 0)"/>
       <use xlink:href="#DejaVuSans-13" transform="translate(1115.21875 0)"/>
       <use xlink:href="#DejaVuSans-17" transform="translate(1178.84375 0)"/>
      </g>
     </g>
    </g>
    <g id="ytick_8">
     <g id="line2d_20">
      <g>
       <use xlink:href="#m8fb4a97611" x="171.354062" y="132.272925" style="stroke: #000000; stroke-width: 0.8"/>
      </g>
     </g>
     <g id="text_15">
      <!-- aurora_cahoy_solar_smoke_v0 -->
      <g transform="translate(27.555469 135.692222) scale(0.09 -0.09)">
       <defs>
        <path id="DejaVuSans-4e" d="M 581 4863 
L 1159 4863 
L 1159 1991 
L 2875 3500 
L 3609 3500 
L 1753 1863 
L 3688 0 
L 2938 0 
L 1159 1709 
L 1159 0 
L 581 0 
L 581 4863 
z
" transform="scale(0.015625)"/>
       </defs>
       <use xlink:href="#DejaVuSans-44"/>
       <use xlink:href="#DejaVuSans-58" transform="translate(61.28125 0)"/>
       <use xlink:href="#DejaVuSans-55" transform="translate(124.65625 0)"/>
       <use xlink:href="#DejaVuSans-52" transform="translate(163.5625 0)"/>
       <use xlink:href="#DejaVuSans-55" transform="translate(224.75 0)"/>
       <use xlink:href="#DejaVuSans-44" transform="translate(265.859375 0)"/>
       <use xlink:href="#DejaVuSans-42" transform="translate(327.140625 0)"/>
       <use xlink:href="#DejaVuSans-46" transform="translate(377.140625 0)"/>
       <use xlink:href="#DejaVuSans-44" transform="translate(432.125 0)"/>
       <use xlink:href="#DejaVuSans-4b" transform="translate(493.40625 0)"/>
       <use xlink:href="#DejaVuSans-52" transform="translate(556.78125 0)"/>
       <use xlink:href="#DejaVuSans-5c" transform="translate(617.96875 0)"/>
       <use xlink:href="#DejaVuSans-42" transform="translate(677.15625 0)"/>
       <use xlink:href="#DejaVuSans-56" transform="translate(727.15625 0)"/>
       <use xlink:href="#DejaVuSans-52" transform="translate(779.25 0)"/>
       <use xlink:href="#DejaVuSans-4f" transform="translate(840.4375 0)"/>
       <use xlink:href="#DejaVuSans-44" transform="translate(868.21875 0)"/>
       <use xlink:href="#DejaVuSans-55" transform="translate(929.5 0)"/>
       <use xlink:href="#DejaVuSans-42" transform="translate(970.609375 0)"/>
       <use xlink:href="#DejaVuSans-56" transform="translate(1020.609375 0)"/>
       <use xlink:href="#DejaVuSans-50" transform="translate(1072.703125 0)"/>
       <use xlink:href="#DejaVuSans-52" transform="translate(1170.109375 0)"/>
       <use xlink:href="#DejaVuSans-4e" transform="translate(1231.296875 0)"/>
       <use xlink:href="#DejaVuSans-48" transform="translate(1285.640625 0)"/>
       <use xlink:href="#DejaVuSans-42" transform="translate(1347.171875 0)"/>
       <use xlink:href="#DejaVuSans-59" transform="translate(1397.171875 0)"/>
       <use xlink:href="#DejaVuSans-13" transform="translate(1456.359375 0)"/>
      </g>
     </g>
    </g>
    <g id="ytick_9">
     <g id="line2d_21">
      <g>
       <use xlink:href="#m8fb4a97611" x="171.354062" y="69.904916" style="stroke: #000000; stroke-width: 0.8"/>
      </g>
     </g>
     <g id="text_16">
      <!-- smoke_test_aurora_subneptune -->
      <g transform="translate(21.203437 73.324213) scale(0.09 -0.09)">
       <use xlink:href="#DejaVuSans-56"/>
       <use xlink:href="#DejaVuSans-50" transform="translate(52.09375 0)"/>
       <use xlink:href="#DejaVuSans-52" transform="translate(149.5 0)"/>
       <use xlink:href="#DejaVuSans-4e" transform="translate(210.6875 0)"/>
       <use xlink:href="#DejaVuSans-48" transform="translate(265.03125 0)"/>
       <use xlink:href="#DejaVuSans-42" transform="translate(326.5625 0)"/>
       <use xlink:href="#DejaVuSans-57" transform="translate(376.5625 0)"/>
       <use xlink:href="#DejaVuSans-48" transform="translate(415.765625 0)"/>
       <use xlink:href="#DejaVuSans-56" transform="translate(477.296875 0)"/>
       <use xlink:href="#DejaVuSans-57" transform="translate(529.390625 0)"/>
       <use xlink:href="#DejaVuSans-42" transform="translate(568.59375 0)"/>
       <use xlink:href="#DejaVuSans-44" transform="translate(618.59375 0)"/>
       <use xlink:href="#DejaVuSans-58" transform="translate(679.875 0)"/>
       <use xlink:href="#DejaVuSans-55" transform="translate(743.25 0)"/>
       <use xlink:href="#DejaVuSans-52" transform="translate(782.15625 0)"/>
       <use xlink:href="#DejaVuSans-55" transform="translate(843.34375 0)"/>
       <use xlink:href="#DejaVuSans-44" transform="translate(884.453125 0)"/>
       <use xlink:href="#DejaVuSans-42" transform="translate(945.734375 0)"/>
       <use xlink:href="#DejaVuSans-56" transform="translate(995.734375 0)"/>
       <use xlink:href="#DejaVuSans-58" transform="translate(1047.828125 0)"/>
       <use xlink:href="#DejaVuSans-45" transform="translate(1111.203125 0)"/>
       <use xlink:href="#DejaVuSans-51" transform="translate(1174.6875 0)"/>
       <use xlink:href="#DejaVuSans-48" transform="translate(1238.0625 0)"/>
       <use xlink:href="#DejaVuSans-53" transform="translate(1299.59375 0)"/>
       <use xlink:href="#DejaVuSans-57" transform="translate(1363.078125 0)"/>
       <use xlink:href="#DejaVuSans-58" transform="translate(1402.28125 0)"/>
       <use xlink:href="#DejaVuSans-51" transform="translate(1465.65625 0)"/>
       <use xlink:href="#DejaVuSans-48" transform="translate(1529.03125 0)"/>
      </g>
     </g>
    </g>
   </g>
   <g id="patch_30">
    <path d="M 171.354062 616.435781 
L 171.354062 22.318125 
" style="fill: none; stroke: #000000; stroke-width: 0.8; stroke-linejoin: miter; stroke-linecap: square"/>
   </g>
   <g id="patch_31">
    <path d="M 941.796563 616.435781 
L 941.796563 22.318125 
" style="fill: none; stroke: #000000; stroke-width: 0.8; stroke-linejoin: miter; stroke-linecap: square"/>
   </g>
   <g id="patch_32">
    <path d="M 171.354062 616.435781 
L 941.796563 616.435781 
" style="fill: none; stroke: #000000; stroke-width: 0.8; stroke-linejoin: miter; stroke-linecap: square"/>
   </g>
   <g id="patch_33">
    <path d="M 171.354062 22.318125 
L 941.796563 22.318125 
" style="fill: none; stroke: #000000; stroke-width: 0.8; stroke-linejoin: miter; stroke-linecap: square"/>
   </g>
   <g id="text_17">
    <!-- 0/40000 -->
    <g transform="translate(179.058487 557.206153) scale(0.08 -0.08)">
     <defs>
      <path id="DejaVuSans-12" d="M 1625 4666 
L 2156 4666 
L 531 -594 
L 0 -594 
L 1625 4666 
z
" transform="scale(0.015625)"/>
     </defs>
     <use xlink:href="#DejaVuSans-13"/>
     <use xlink:href="#DejaVuSans-12" transform="translate(63.625 0)"/>
     <use xlink:href="#DejaVuSans-17" transform="translate(97.3125 0)"/>
     <use xlink:href="#DejaVuSans-13" transform="translate(160.9375 0)"/>
     <use xlink:href="#DejaVuSans-13" transform="translate(224.5625 0)"/>
     <use xlink:href="#DejaVuSans-13" transform="translate(288.1875 0)"/>
     <use xlink:href="#DejaVuSans-13" transform="translate(351.8125 0)"/>
    </g>
   </g>
   <g id="text_18">
    <!-- 0/960000 -->
    <g transform="translate(179.058487 570.927115) scale(0.08 -0.08)">
     <defs>
      <path id="DejaVuSans-1c" d="M 703 97 
L 703 672 
Q 941 559 1184 500 
Q 1428 441 1663 441 
Q 2288 441 2617 861 
Q 2947 1281 2994 2138 
Q 2813 1869 2534 1725 
Q 2256 1581 1919 1581 
Q 1219 1581 811 2004 
Q 403 2428 403 3163 
Q 403 3881 828 4315 
Q 1253 4750 1959 4750 
Q 2769 4750 3195 4129 
Q 3622 3509 3622 2328 
Q 3622 1225 3098 567 
Q 2575 -91 1691 -91 
Q 1453 -91 1209 -44 
Q 966 3 703 97 
z
M 1959 2075 
Q 2384 2075 2632 2365 
Q 2881 2656 2881 3163 
Q 2881 3666 2632 3958 
Q 2384 4250 1959 4250 
Q 1534 4250 1286 3958 
Q 1038 3666 1038 3163 
Q 1038 2656 1286 2365 
Q 1534 2075 1959 2075 
z
" transform="scale(0.015625)"/>
     </defs>
     <use xlink:href="#DejaVuSans-13"/>
     <use xlink:href="#DejaVuSans-12" transform="translate(63.625 0)"/>
     <use xlink:href="#DejaVuSans-1c" transform="translate(97.3125 0)"/>
     <use xlink:href="#DejaVuSans-19" transform="translate(160.9375 0)"/>
     <use xlink:href="#DejaVuSans-13" transform="translate(224.5625 0)"/>
     <use xlink:href="#DejaVuSans-13" transform="translate(288.1875 0)"/>
     <use xlink:href="#DejaVuSans-13" transform="translate(351.8125 0)"/>
     <use xlink:href="#DejaVuSans-13" transform="translate(415.4375 0)"/>
    </g>
   </g>
   <g id="text_19">
    <!-- 0/960000 -->
    <g transform="translate(179.058487 584.648077) scale(0.08 -0.08)">
     <use xlink:href="#DejaVuSans-13"/>
     <use xlink:href="#DejaVuSans-12" transform="translate(63.625 0)"/>
     <use xlink:href="#DejaVuSans-1c" transform="translate(97.3125 0)"/>
     <use xlink:href="#DejaVuSans-19" transform="translate(160.9375 0)"/>
     <use xlink:href="#DejaVuSans-13" transform="translate(224.5625 0)"/>
     <use xlink:href="#DejaVuSans-13" transform="translate(288.1875 0)"/>
     <use xlink:href="#DejaVuSans-13" transform="translate(351.8125 0)"/>
     <use xlink:href="#DejaVuSans-13" transform="translate(415.4375 0)"/>
    </g>
   </g>
   <g id="text_20">
    <!-- 0/40000 -->
    <g transform="translate(179.058487 494.838144) scale(0.08 -0.08)">
     <use xlink:href="#DejaVuSans-13"/>
     <use xlink:href="#DejaVuSans-12" transform="translate(63.625 0)"/>
     <use xlink:href="#DejaVuSans-17" transform="translate(97.3125 0)"/>
     <use xlink:href="#DejaVuSans-13" transform="translate(160.9375 0)"/>
     <use xlink:href="#DejaVuSans-13" transform="translate(224.5625 0)"/>
     <use xlink:href="#DejaVuSans-13" transform="translate(288.1875 0)"/>
     <use xlink:href="#DejaVuSans-13" transform="translate(351.8125 0)"/>
    </g>
   </g>
   <g id="text_21">
    <!-- 0/960000 -->
    <g transform="translate(179.058487 508.559106) scale(0.08 -0.08)">
     <use xlink:href="#DejaVuSans-13"/>
     <use xlink:href="#DejaVuSans-12" transform="translate(63.625 0)"/>
     <use xlink:href="#DejaVuSans-1c" transform="translate(97.3125 0)"/>
     <use xlink:href="#DejaVuSans-19" transform="translate(160.9375 0)"/>
     <use xlink:href="#DejaVuSans-13" transform="translate(224.5625 0)"/>
     <use xlink:href="#DejaVuSans-13" transform="translate(288.1875 0)"/>
     <use xlink:href="#DejaVuSans-13" transform="translate(351.8125 0)"/>
     <use xlink:href="#DejaVuSans-13" transform="translate(415.4375 0)"/>
    </g>
   </g>
   <g id="text_22">
    <!-- 0/960000 -->
    <g transform="translate(179.058487 522.280068) scale(0.08 -0.08)">
     <use xlink:href="#DejaVuSans-13"/>
     <use xlink:href="#DejaVuSans-12" transform="translate(63.625 0)"/>
     <use xlink:href="#DejaVuSans-1c" transform="translate(97.3125 0)"/>
     <use xlink:href="#DejaVuSans-19" transform="translate(160.9375 0)"/>
     <use xlink:href="#DejaVuSans-13" transform="translate(224.5625 0)"/>
     <use xlink:href="#DejaVuSans-13" transform="translate(288.1875 0)"/>
     <use xlink:href="#DejaVuSans-13" transform="translate(351.8125 0)"/>
     <use xlink:href="#DejaVuSans-13" transform="translate(415.4375 0)"/>
    </g>
   </g>
   <g id="text_23">
    <!-- 0/46080 -->
    <g transform="translate(179.058487 432.470135) scale(0.08 -0.08)">
     <use xlink:href="#DejaVuSans-13"/>
     <use xlink:href="#DejaVuSans-12" transform="translate(63.625 0)"/>
     <use xlink:href="#DejaVuSans-17" transform="translate(97.3125 0)"/>
     <use xlink:href="#DejaVuSans-19" transform="translate(160.9375 0)"/>
     <use xlink:href="#DejaVuSans-13" transform="translate(224.5625 0)"/>
     <use xlink:href="#DejaVuSans-1b" transform="translate(288.1875 0)"/>
     <use xlink:href="#DejaVuSans-13" transform="translate(351.8125 0)"/>
    </g>
   </g>
   <g id="text_24">
    <!-- 0/276480 -->
    <g transform="translate(179.058487 446.191097) scale(0.08 -0.08)">
     <defs>
      <path id="DejaVuSans-1a" d="M 525 4666 
L 3525 4666 
L 3525 4397 
L 1831 0 
L 1172 0 
L 2766 4134 
L 525 4134 
L 525 4666 
z
" transform="scale(0.015625)"/>
     </defs>
     <use xlink:href="#DejaVuSans-13"/>
     <use xlink:href="#DejaVuSans-12" transform="translate(63.625 0)"/>
     <use xlink:href="#DejaVuSans-15" transform="translate(97.3125 0)"/>
     <use xlink:href="#DejaVuSans-1a" transform="translate(160.9375 0)"/>
     <use xlink:href="#DejaVuSans-19" transform="translate(224.5625 0)"/>
     <use xlink:href="#DejaVuSans-17" transform="translate(288.1875 0)"/>
     <use xlink:href="#DejaVuSans-1b" transform="translate(351.8125 0)"/>
     <use xlink:href="#DejaVuSans-13" transform="translate(415.4375 0)"/>
    </g>
   </g>
   <g id="text_25">
    <!-- 0/276480 -->
    <g transform="translate(179.058487 459.912059) scale(0.08 -0.08)">
     <use xlink:href="#DejaVuSans-13"/>
     <use xlink:href="#DejaVuSans-12" transform="translate(63.625 0)"/>
     <use xlink:href="#DejaVuSans-15" transform="translate(97.3125 0)"/>
     <use xlink:href="#DejaVuSans-1a" transform="translate(160.9375 0)"/>
     <use xlink:href="#DejaVuSans-19" transform="translate(224.5625 0)"/>
     <use xlink:href="#DejaVuSans-17" transform="translate(288.1875 0)"/>
     <use xlink:href="#DejaVuSans-1b" transform="translate(351.8125 0)"/>
     <use xlink:href="#DejaVuSans-13" transform="translate(415.4375 0)"/>
    </g>
   </g>
   <g id="text_26">
    <!-- 0/576 -->
    <g transform="translate(179.058487 370.102125) scale(0.08 -0.08)">
     <defs>
      <path id="DejaVuSans-18" d="M 691 4666 
L 3169 4666 
L 3169 4134 
L 1269 4134 
L 1269 2991 
Q 1406 3038 1543 3061 
Q 1681 3084 1819 3084 
Q 2600 3084 3056 2656 
Q 3513 2228 3513 1497 
Q 3513 744 3044 326 
Q 2575 -91 1722 -91 
Q 1428 -91 1123 -41 
Q 819 9 494 109 
L 494 744 
Q 775 591 1075 516 
Q 1375 441 1709 441 
Q 2250 441 2565 725 
Q 2881 1009 2881 1497 
Q 2881 1984 2565 2268 
Q 2250 2553 1709 2553 
Q 1456 2553 1204 2497 
Q 953 2441 691 2322 
L 691 4666 
z
" transform="scale(0.015625)"/>
     </defs>
     <use xlink:href="#DejaVuSans-13"/>
     <use xlink:href="#DejaVuSans-12" transform="translate(63.625 0)"/>
     <use xlink:href="#DejaVuSans-18" transform="translate(97.3125 0)"/>
     <use xlink:href="#DejaVuSans-1a" transform="translate(160.9375 0)"/>
     <use xlink:href="#DejaVuSans-19" transform="translate(224.5625 0)"/>
    </g>
   </g>
   <g id="text_27">
    <!-- 0/1728 -->
    <g transform="translate(179.058487 383.823087) scale(0.08 -0.08)">
     <use xlink:href="#DejaVuSans-13"/>
     <use xlink:href="#DejaVuSans-12" transform="translate(63.625 0)"/>
     <use xlink:href="#DejaVuSans-14" transform="translate(97.3125 0)"/>
     <use xlink:href="#DejaVuSans-1a" transform="translate(160.9375 0)"/>
     <use xlink:href="#DejaVuSans-15" transform="translate(224.5625 0)"/>
     <use xlink:href="#DejaVuSans-1b" transform="translate(288.1875 0)"/>
    </g>
   </g>
   <g id="text_28">
    <!-- 0/1728 -->
    <g transform="translate(179.058487 397.544049) scale(0.08 -0.08)">
     <use xlink:href="#DejaVuSans-13"/>
     <use xlink:href="#DejaVuSans-12" transform="translate(63.625 0)"/>
     <use xlink:href="#DejaVuSans-14" transform="translate(97.3125 0)"/>
     <use xlink:href="#DejaVuSans-1a" transform="translate(160.9375 0)"/>
     <use xlink:href="#DejaVuSans-15" transform="translate(224.5625 0)"/>
     <use xlink:href="#DejaVuSans-1b" transform="translate(288.1875 0)"/>
    </g>
   </g>
   <g id="text_29">
    <!-- 0/128 -->
    <g transform="translate(179.058487 307.734116) scale(0.08 -0.08)">
     <use xlink:href="#DejaVuSans-13"/>
     <use xlink:href="#DejaVuSans-12" transform="translate(63.625 0)"/>
     <use xlink:href="#DejaVuSans-14" transform="translate(97.3125 0)"/>
     <use xlink:href="#DejaVuSans-15" transform="translate(160.9375 0)"/>
     <use xlink:href="#DejaVuSans-1b" transform="translate(224.5625 0)"/>
    </g>
   </g>
   <g id="text_30">
    <!-- 0/768 -->
    <g transform="translate(179.058487 321.455078) scale(0.08 -0.08)">
     <use xlink:href="#DejaVuSans-13"/>
     <use xlink:href="#DejaVuSans-12" transform="translate(63.625 0)"/>
     <use xlink:href="#DejaVuSans-1a" transform="translate(97.3125 0)"/>
     <use xlink:href="#DejaVuSans-19" transform="translate(160.9375 0)"/>
     <use xlink:href="#DejaVuSans-1b" transform="translate(224.5625 0)"/>
    </g>
   </g>
   <g id="text_31">
    <!-- 0/768 -->
    <g transform="translate(179.058487 335.17604) scale(0.08 -0.08)">
     <use xlink:href="#DejaVuSans-13"/>
     <use xlink:href="#DejaVuSans-12" transform="translate(63.625 0)"/>
     <use xlink:href="#DejaVuSans-1a" transform="translate(97.3125 0)"/>
     <use xlink:href="#DejaVuSans-19" transform="translate(160.9375 0)"/>
     <use xlink:href="#DejaVuSans-1b" transform="translate(224.5625 0)"/>
    </g>
   </g>
   <g id="text_32">
    <!-- 0/16 -->
    <g transform="translate(179.058487 245.366107) scale(0.08 -0.08)">
     <use xlink:href="#DejaVuSans-13"/>
     <use xlink:href="#DejaVuSans-12" transform="translate(63.625 0)"/>
     <use xlink:href="#DejaVuSans-14" transform="translate(97.3125 0)"/>
     <use xlink:href="#DejaVuSans-19" transform="translate(160.9375 0)"/>
    </g>
   </g>
   <g id="text_33">
    <!-- 0/304 -->
    <g transform="translate(179.058487 259.087069) scale(0.08 -0.08)">
     <use xlink:href="#DejaVuSans-13"/>
     <use xlink:href="#DejaVuSans-12" transform="translate(63.625 0)"/>
     <use xlink:href="#DejaVuSans-16" transform="translate(97.3125 0)"/>
     <use xlink:href="#DejaVuSans-13" transform="translate(160.9375 0)"/>
     <use xlink:href="#DejaVuSans-17" transform="translate(224.5625 0)"/>
    </g>
   </g>
   <g id="text_34">
    <!-- 0/304 -->
    <g transform="translate(179.058487 272.808031) scale(0.08 -0.08)">
     <use xlink:href="#DejaVuSans-13"/>
     <use xlink:href="#DejaVuSans-12" transform="translate(63.625 0)"/>
     <use xlink:href="#DejaVuSans-16" transform="translate(97.3125 0)"/>
     <use xlink:href="#DejaVuSans-13" transform="translate(160.9375 0)"/>
     <use xlink:href="#DejaVuSans-17" transform="translate(224.5625 0)"/>
    </g>
   </g>
   <g id="text_35">
    <!-- 0/16 -->
    <g transform="translate(179.058487 182.998098) scale(0.08 -0.08)">
     <use xlink:href="#DejaVuSans-13"/>
     <use xlink:href="#DejaVuSans-12" transform="translate(63.625 0)"/>
     <use xlink:href="#DejaVuSans-14" transform="translate(97.3125 0)"/>
     <use xlink:href="#DejaVuSans-19" transform="translate(160.9375 0)"/>
    </g>
   </g>
   <g id="text_36">
    <!-- 0/304 -->
    <g transform="translate(179.058487 196.71906) scale(0.08 -0.08)">
     <use xlink:href="#DejaVuSans-13"/>
     <use xlink:href="#DejaVuSans-12" transform="translate(63.625 0)"/>
     <use xlink:href="#DejaVuSans-16" transform="translate(97.3125 0)"/>
     <use xlink:href="#DejaVuSans-13" transform="translate(160.9375 0)"/>
     <use xlink:href="#DejaVuSans-17" transform="translate(224.5625 0)"/>
    </g>
   </g>
   <g id="text_37">
    <!-- 0/304 -->
    <g transform="translate(179.058487 210.440022) scale(0.08 -0.08)">
     <use xlink:href="#DejaVuSans-13"/>
     <use xlink:href="#DejaVuSans-12" transform="translate(63.625 0)"/>
     <use xlink:href="#DejaVuSans-16" transform="translate(97.3125 0)"/>
     <use xlink:href="#DejaVuSans-13" transform="translate(160.9375 0)"/>
     <use xlink:href="#DejaVuSans-17" transform="translate(224.5625 0)"/>
    </g>
   </g>
   <g id="text_38">
    <!-- 0/16 -->
    <g transform="translate(179.058487 120.630088) scale(0.08 -0.08)">
     <use xlink:href="#DejaVuSans-13"/>
     <use xlink:href="#DejaVuSans-12" transform="translate(63.625 0)"/>
     <use xlink:href="#DejaVuSans-14" transform="translate(97.3125 0)"/>
     <use xlink:href="#DejaVuSans-19" transform="translate(160.9375 0)"/>
    </g>
   </g>
   <g id="text_39">
    <!-- 0/48 -->
    <g transform="translate(179.058487 134.35105) scale(0.08 -0.08)">
     <use xlink:href="#DejaVuSans-13"/>
     <use xlink:href="#DejaVuSans-12" transform="translate(63.625 0)"/>
     <use xlink:href="#DejaVuSans-17" transform="translate(97.3125 0)"/>
     <use xlink:href="#DejaVuSans-1b" transform="translate(160.9375 0)"/>
    </g>
   </g>
   <g id="text_40">
    <!-- 0/48 -->
    <g transform="translate(179.058487 148.072012) scale(0.08 -0.08)">
     <use xlink:href="#DejaVuSans-13"/>
     <use xlink:href="#DejaVuSans-12" transform="translate(63.625 0)"/>
     <use xlink:href="#DejaVuSans-17" transform="translate(97.3125 0)"/>
     <use xlink:href="#DejaVuSans-1b" transform="translate(160.9375 0)"/>
    </g>
   </g>
   <g id="text_41">
    <!-- 0/2 -->
    <g transform="translate(179.058487 58.262079) scale(0.08 -0.08)">
     <use xlink:href="#DejaVuSans-13"/>
     <use xlink:href="#DejaVuSans-12" transform="translate(63.625 0)"/>
     <use xlink:href="#DejaVuSans-15" transform="translate(97.3125 0)"/>
    </g>
   </g>
   <g id="text_42">
    <!-- 0/6 -->
    <g transform="translate(179.058487 71.983041) scale(0.08 -0.08)">
     <use xlink:href="#DejaVuSans-13"/>
     <use xlink:href="#DejaVuSans-12" transform="translate(63.625 0)"/>
     <use xlink:href="#DejaVuSans-19" transform="translate(97.3125 0)"/>
    </g>
   </g>
   <g id="text_43">
    <!-- 0/6 -->
    <g transform="translate(179.058487 85.704003) scale(0.08 -0.08)">
     <use xlink:href="#DejaVuSans-13"/>
     <use xlink:href="#DejaVuSans-12" transform="translate(63.625 0)"/>
     <use xlink:href="#DejaVuSans-19" transform="translate(97.3125 0)"/>
    </g>
   </g>
   <g id="text_44">
    <!-- Aurora Grid Progress: Stage 1 / Stage 2 / QC -->
    <g transform="translate(423.87125 16.318125) scale(0.12 -0.12)">
     <defs>
      <path id="DejaVuSans-24" d="M 2188 4044 
L 1331 1722 
L 3047 1722 
L 2188 4044 
z
M 1831 4666 
L 2547 4666 
L 4325 0 
L 3669 0 
L 3244 1197 
L 1141 1197 
L 716 0 
L 50 0 
L 1831 4666 
z
" transform="scale(0.015625)"/>
      <path id="DejaVuSans-2a" d="M 3809 666 
L 3809 1919 
L 2778 1919 
L 2778 2438 
L 4434 2438 
L 4434 434 
Q 4069 175 3628 42 
Q 3188 -91 2688 -91 
Q 1594 -91 976 548 
Q 359 1188 359 2328 
Q 359 3472 976 4111 
Q 1594 4750 2688 4750 
Q 3144 4750 3555 4637 
Q 3966 4525 4313 4306 
L 4313 3634 
Q 3963 3931 3569 4081 
Q 3175 4231 2741 4231 
Q 1884 4231 1454 3753 
Q 1025 3275 1025 2328 
Q 1025 1384 1454 906 
Q 1884 428 2741 428 
Q 3075 428 3337 486 
Q 3600 544 3809 666 
z
" transform="scale(0.015625)"/>
      <path id="DejaVuSans-33" d="M 1259 4147 
L 1259 2394 
L 2053 2394 
Q 2494 2394 2734 2622 
Q 2975 2850 2975 3272 
Q 2975 3691 2734 3919 
Q 2494 4147 2053 4147 
L 1259 4147 
z
M 628 4666 
L 2053 4666 
Q 2838 4666 3239 4311 
Q 3641 3956 3641 3272 
Q 3641 2581 3239 2228 
Q 2838 1875 2053 1875 
L 1259 1875 
L 1259 0 
L 628 0 
L 628 4666 
z
" transform="scale(0.015625)"/>
      <path id="DejaVuSans-1d" d="M 750 794 
L 1409 794 
L 1409 0 
L 750 0 
L 750 794 
z
M 750 3309 
L 1409 3309 
L 1409 2516 
L 750 2516 
L 750 3309 
z
" transform="scale(0.015625)"/>
      <path id="DejaVuSans-36" d="M 3425 4513 
L 3425 3897 
Q 3066 4069 2747 4153 
Q 2428 4238 2131 4238 
Q 1616 4238 1336 4038 
Q 1056 3838 1056 3469 
Q 1056 3159 1242 3001 
Q 1428 2844 1947 2747 
L 2328 2669 
Q 3034 2534 3370 2195 
Q 3706 1856 3706 1288 
Q 3706 609 3251 259 
Q 2797 -91 1919 -91 
Q 1588 -91 1214 -16 
Q 841 59 441 206 
L 441 856 
Q 825 641 1194 531 
Q 1563 422 1919 422 
Q 2459 422 2753 634 
Q 3047 847 3047 1241 
Q 3047 1584 2836 1778 
Q 2625 1972 2144 2069 
L 1759 2144 
Q 1053 2284 737 2584 
Q 422 2884 422 3419 
Q 422 4038 858 4394 
Q 1294 4750 2059 4750 
Q 2388 4750 2728 4690 
Q 3069 4631 3425 4513 
z
" transform="scale(0.015625)"/>
      <path id="DejaVuSans-34" d="M 2522 4238 
Q 1834 4238 1429 3725 
Q 1025 3213 1025 2328 
Q 1025 1447 1429 934 
Q 1834 422 2522 422 
Q 3209 422 3611 934 
Q 4013 1447 4013 2328 
Q 4013 3213 3611 3725 
Q 3209 4238 2522 4238 
z
M 3406 84 
L 4238 -825 
L 3475 -825 
L 2784 -78 
Q 2681 -84 2626 -87 
Q 2572 -91 2522 -91 
Q 1538 -91 948 567 
Q 359 1225 359 2328 
Q 359 3434 948 4092 
Q 1538 4750 2522 4750 
Q 3503 4750 4090 4092 
Q 4678 3434 4678 2328 
Q 4678 1516 4351 937 
Q 4025 359 3406 84 
z
" transform="scale(0.015625)"/>
     </defs>
     <use xlink:href="#DejaVuSans-24"/>
     <use xlink:href="#DejaVuSans-58" transform="translate(68.40625 0)"/>
     <use xlink:href="#DejaVuSans-55" transform="translate(131.78125 0)"/>
     <use xlink:href="#DejaVuSans-52" transform="translate(170.6875 0)"/>
     <use xlink:href="#DejaVuSans-55" transform="translate(231.875 0)"/>
     <use xlink:href="#DejaVuSans-44" transform="translate(272.984375 0)"/>
     <use xlink:href="#DejaVuSans-3" transform="translate(334.265625 0)"/>
     <use xlink:href="#DejaVuSans-2a" transform="translate(366.046875 0)"/>
     <use xlink:href="#DejaVuSans-55" transform="translate(443.53125 0)"/>
     <use xlink:href="#DejaVuSans-4c" transform="translate(484.640625 0)"/>
     <use xlink:href="#DejaVuSans-47" transform="translate(512.421875 0)"/>
     <use xlink:href="#DejaVuSans-3" transform="translate(575.90625 0)"/>
     <use xlink:href="#DejaVuSans-33" transform="translate(607.6875 0)"/>
     <use xlink:href="#DejaVuSans-55" transform="translate(666.234375 0)"/>
     <use xlink:href="#DejaVuSans-52" transform="translate(705.140625 0)"/>
     <use xlink:href="#DejaVuSans-4a" transform="translate(766.328125 0)"/>
     <use xlink:href="#DejaVuSans-55" transform="translate(829.8125 0)"/>
     <use xlink:href="#DejaVuSans-48" transform="translate(868.71875 0)"/>
     <use xlink:href="#DejaVuSans-56" transform="translate(930.25 0)"/>
     <use xlink:href="#DejaVuSans-56" transform="translate(982.34375 0)"/>
     <use xlink:href="#DejaVuSans-1d" transform="translate(1034.4375 0)"/>
     <use xlink:href="#DejaVuSans-3" transform="translate(1068.125 0)"/>
     <use xlink:href="#DejaVuSans-36" transform="translate(1099.90625 0)"/>
     <use xlink:href="#DejaVuSans-57" transform="translate(1163.390625 0)"/>
     <use xlink:href="#DejaVuSans-44" transform="translate(1202.59375 0)"/>
     <use xlink:href="#DejaVuSans-4a" transform="translate(1263.875 0)"/>
     <use xlink:href="#DejaVuSans-48" transform="translate(1327.359375 0)"/>
     <use xlink:href="#DejaVuSans-3" transform="translate(1388.890625 0)"/>
     <use xlink:href="#DejaVuSans-14" transform="translate(1420.671875 0)"/>
     <use xlink:href="#DejaVuSans-3" transform="translate(1484.296875 0)"/>
     <use xlink:href="#DejaVuSans-12" transform="translate(1516.078125 0)"/>
     <use xlink:href="#DejaVuSans-3" transform="translate(1549.765625 0)"/>
     <use xlink:href="#DejaVuSans-36" transform="translate(1581.546875 0)"/>
     <use xlink:href="#DejaVuSans-57" transform="translate(1645.03125 0)"/>
     <use xlink:href="#DejaVuSans-44" transform="translate(1684.234375 0)"/>
     <use xlink:href="#DejaVuSans-4a" transform="translate(1745.515625 0)"/>
     <use xlink:href="#DejaVuSans-48" transform="translate(1809 0)"/>
     <use xlink:href="#DejaVuSans-3" transform="translate(1870.53125 0)"/>
     <use xlink:href="#DejaVuSans-15" transform="translate(1902.3125 0)"/>
     <use xlink:href="#DejaVuSans-3" transform="translate(1965.9375 0)"/>
     <use xlink:href="#DejaVuSans-12" transform="translate(1997.71875 0)"/>
     <use xlink:href="#DejaVuSans-3" transform="translate(2031.40625 0)"/>
     <use xlink:href="#DejaVuSans-34" transform="translate(2063.1875 0)"/>
     <use xlink:href="#DejaVuSans-26" transform="translate(2141.90625 0)"/>
    </g>
   </g>
   <g id="legend_1">
    <g id="patch_34">
     <path d="M 822.671563 611.435781 
L 934.796563 611.435781 
Q 936.796563 611.435781 936.796563 609.435781 
L 936.796563 565.433437 
Q 936.796563 563.433437 934.796563 563.433437 
L 822.671563 563.433437 
Q 820.671563 563.433437 820.671563 565.433437 
L 820.671563 609.435781 
Q 820.671563 611.435781 822.671563 611.435781 
z
" style="fill: #ffffff; opacity: 0.8; stroke: #cccccc; stroke-linejoin: miter"/>
    </g>
    <g id="patch_35">
     <path d="M 824.671563 575.031875 
L 844.671563 575.031875 
L 844.671563 568.031875 
L 824.671563 568.031875 
z
" style="fill: #4c78a8"/>
    </g>
    <g id="text_45">
     <!-- Stage 1 Climate -->
     <g transform="translate(852.671563 575.031875) scale(0.1 -0.1)">
      <use xlink:href="#DejaVuSans-36"/>
      <use xlink:href="#DejaVuSans-57" transform="translate(63.484375 0)"/>
      <use xlink:href="#DejaVuSans-44" transform="translate(102.6875 0)"/>
      <use xlink:href="#DejaVuSans-4a" transform="translate(163.96875 0)"/>
      <use xlink:href="#DejaVuSans-48" transform="translate(227.453125 0)"/>
      <use xlink:href="#DejaVuSans-3" transform="translate(288.984375 0)"/>
      <use xlink:href="#DejaVuSans-14" transform="translate(320.765625 0)"/>
      <use xlink:href="#DejaVuSans-3" transform="translate(384.390625 0)"/>
      <use xlink:href="#DejaVuSans-26" transform="translate(416.171875 0)"/>
      <use xlink:href="#DejaVuSans-4f" transform="translate(486 0)"/>
      <use xlink:href="#DejaVuSans-4c" transform="translate(513.78125 0)"/>
      <use xlink:href="#DejaVuSans-50" transform="translate(541.5625 0)"/>
      <use xlink:href="#DejaVuSans-44" transform="translate(638.96875 0)"/>
      <use xlink:href="#DejaVuSans-57" transform="translate(700.25 0)"/>
      <use xlink:href="#DejaVuSans-48" transform="translate(739.453125 0)"/>
     </g>
    </g>
    <g id="patch_36">
     <path d="M 824.671563 590.032656 
L 844.671563 590.032656 
L 844.671563 583.032656 
L 824.671563 583.032656 
z
" style="fill: #59a14f"/>
    </g>
    <g id="text_46">
     <!-- Stage 2 Spectra -->
     <g transform="translate(852.671563 590.032656) scale(0.1 -0.1)">
      <use xlink:href="#DejaVuSans-36"/>
      <use xlink:href="#DejaVuSans-57" transform="translate(63.484375 0)"/>
      <use xlink:href="#DejaVuSans-44" transform="translate(102.6875 0)"/>
      <use xlink:href="#DejaVuSans-4a" transform="translate(163.96875 0)"/>
      <use xlink:href="#DejaVuSans-48" transform="translate(227.453125 0)"/>
      <use xlink:href="#DejaVuSans-3" transform="translate(288.984375 0)"/>
      <use xlink:href="#DejaVuSans-15" transform="translate(320.765625 0)"/>
      <use xlink:href="#DejaVuSans-3" transform="translate(384.390625 0)"/>
      <use xlink:href="#DejaVuSans-36" transform="translate(416.171875 0)"/>
      <use xlink:href="#DejaVuSans-53" transform="translate(479.65625 0)"/>
      <use xlink:href="#DejaVuSans-48" transform="translate(543.140625 0)"/>
      <use xlink:href="#DejaVuSans-46" transform="translate(604.671875 0)"/>
      <use xlink:href="#DejaVuSans-57" transform="translate(659.65625 0)"/>
      <use xlink:href="#DejaVuSans-55" transform="translate(698.859375 0)"/>
      <use xlink:href="#DejaVuSans-44" transform="translate(739.96875 0)"/>
     </g>
    </g>
    <g id="patch_37">
     <path d="M 824.671563 605.033437 
L 844.671563 605.033437 
L 844.671563 598.033437 
L 824.671563 598.033437 
z
" style="fill: #f28e2b"/>
    </g>
    <g id="text_47">
     <!-- QC Evaluated -->
     <g transform="translate(852.671563 605.033437) scale(0.1 -0.1)">
      <defs>
       <path id="DejaVuSans-28" d="M 628 4666 
L 3578 4666 
L 3578 4134 
L 1259 4134 
L 1259 2753 
L 3481 2753 
L 3481 2222 
L 1259 2222 
L 1259 531 
L 3634 531 
L 3634 0 
L 628 0 
L 628 4666 
z
" transform="scale(0.015625)"/>
      </defs>
      <use xlink:href="#DejaVuSans-34"/>
      <use xlink:href="#DejaVuSans-26" transform="translate(78.71875 0)"/>
      <use xlink:href="#DejaVuSans-3" transform="translate(148.546875 0)"/>
      <use xlink:href="#DejaVuSans-28" transform="translate(180.328125 0)"/>
      <use xlink:href="#DejaVuSans-59" transform="translate(243.515625 0)"/>
      <use xlink:href="#DejaVuSans-44" transform="translate(302.703125 0)"/>
      <use xlink:href="#DejaVuSans-4f" transform="translate(363.984375 0)"/>
      <use xlink:href="#DejaVuSans-58" transform="translate(391.765625 0)"/>
      <use xlink:href="#DejaVuSans-44" transform="translate(455.140625 0)"/>
      <use xlink:href="#DejaVuSans-57" transform="translate(516.421875 0)"/>
      <use xlink:href="#DejaVuSans-48" transform="translate(555.625 0)"/>
      <use xlink:href="#DejaVuSans-47" transform="translate(617.15625 0)"/>
     </g>
    </g>
   </g>
  </g>
 </g>
 <defs>
  <clipPath id="pd7b45c4f21">
   <rect x="171.354062" y="22.318125" width="770.4425" height="594.117656"/>
  </clipPath>
 </defs>
</svg>
